<mxfile host="app.diagrams.net" modified="2023-10-11T04:41:30.726Z" agent="Mozilla/5.0 (Windows NT 10.0; Win64; x64) AppleWebKit/537.36 (KHTML, like Gecko) Chrome/117.0.0.0 Safari/537.36" etag="TipNbhWazGWcHZqzTJ0f" version="22.0.4" type="device">
  <diagram name="Page-1" id="87WC3KkdrnnZ19cBRQoI">
    <mxGraphModel dx="1050" dy="542" grid="1" gridSize="10" guides="1" tooltips="1" connect="1" arrows="1" fold="1" page="1" pageScale="1" pageWidth="850" pageHeight="1100" background="#ffffff" math="1" shadow="0">
      <root>
        <mxCell id="0" />
        <mxCell id="1" parent="0" />
        <mxCell id="S86RLXgE3m7_56bNUZm7-1" style="edgeStyle=orthogonalEdgeStyle;rounded=0;orthogonalLoop=1;jettySize=auto;html=1;entryX=0.5;entryY=0;entryDx=0;entryDy=0;" edge="1" parent="1" source="S86RLXgE3m7_56bNUZm7-2" target="S86RLXgE3m7_56bNUZm7-9">
          <mxGeometry relative="1" as="geometry" />
        </mxCell>
        <mxCell id="S86RLXgE3m7_56bNUZm7-24" value="`t=1`" style="edgeLabel;html=1;align=center;verticalAlign=middle;resizable=0;points=[];" vertex="1" connectable="0" parent="S86RLXgE3m7_56bNUZm7-1">
          <mxGeometry x="0.7935" relative="1" as="geometry">
            <mxPoint as="offset" />
          </mxGeometry>
        </mxCell>
        <mxCell id="S86RLXgE3m7_56bNUZm7-12" style="edgeStyle=orthogonalEdgeStyle;rounded=0;orthogonalLoop=1;jettySize=auto;html=1;entryX=0;entryY=0.5;entryDx=0;entryDy=0;" edge="1" parent="1" source="S86RLXgE3m7_56bNUZm7-2" target="S86RLXgE3m7_56bNUZm7-11">
          <mxGeometry relative="1" as="geometry" />
        </mxCell>
        <mxCell id="S86RLXgE3m7_56bNUZm7-2" value="Calculate all exogenous trajectories" style="rounded=1;whiteSpace=wrap;html=1;fillColor=#ffe6cc;strokeColor=#d79b00;" vertex="1" parent="1">
          <mxGeometry x="120" y="15" width="120" height="60" as="geometry" />
        </mxCell>
        <mxCell id="S86RLXgE3m7_56bNUZm7-3" style="edgeStyle=orthogonalEdgeStyle;rounded=0;orthogonalLoop=1;jettySize=auto;html=1;entryX=0.5;entryY=0;entryDx=0;entryDy=0;" edge="1" parent="1" source="S86RLXgE3m7_56bNUZm7-4" target="S86RLXgE3m7_56bNUZm7-6">
          <mxGeometry relative="1" as="geometry" />
        </mxCell>
        <mxCell id="S86RLXgE3m7_56bNUZm7-4" value="Update interest rates: all except `r_t^B`, `r_t^J`, `r_t^{J,**}`,`r_t^R`" style="rounded=1;whiteSpace=wrap;html=1;fillColor=#d5e8d4;strokeColor=#82b366;" vertex="1" parent="1">
          <mxGeometry x="280" y="200" width="120" height="60" as="geometry" />
        </mxCell>
        <mxCell id="S86RLXgE3m7_56bNUZm7-5" style="edgeStyle=orthogonalEdgeStyle;rounded=0;orthogonalLoop=1;jettySize=auto;html=1;" edge="1" parent="1" source="S86RLXgE3m7_56bNUZm7-6" target="S86RLXgE3m7_56bNUZm7-7">
          <mxGeometry relative="1" as="geometry" />
        </mxCell>
        <mxCell id="S86RLXgE3m7_56bNUZm7-6" value="Update lag aggregates `\cc{L}^O`, `\hat{\cc{L}}^O`, `\tilde{\cc{L}}^O`, `\cc{L}^O`,`\cc{L}^Y`" style="rounded=1;whiteSpace=wrap;html=1;fillColor=#d5e8d4;strokeColor=#82b366;" vertex="1" parent="1">
          <mxGeometry x="280" y="290" width="120" height="60" as="geometry" />
        </mxCell>
        <mxCell id="S86RLXgE3m7_56bNUZm7-17" style="edgeStyle=orthogonalEdgeStyle;rounded=0;orthogonalLoop=1;jettySize=auto;html=1;entryX=0.5;entryY=0;entryDx=0;entryDy=0;" edge="1" parent="1" source="S86RLXgE3m7_56bNUZm7-7" target="S86RLXgE3m7_56bNUZm7-16">
          <mxGeometry relative="1" as="geometry" />
        </mxCell>
        <mxCell id="S86RLXgE3m7_56bNUZm7-7" value="Solve nonlinear problem at time `t`" style="points=[[0.25,0,0],[0.5,0,0],[0.75,0,0],[1,0.25,0],[1,0.5,0],[1,0.75,0],[0.75,1,0],[0.5,1,0],[0.25,1,0],[0,0.75,0],[0,0.5,0],[0,0.25,0]];shape=mxgraph.bpmn.task;whiteSpace=wrap;rectStyle=rounded;size=10;html=1;container=1;expand=0;collapsible=0;taskMarker=abstract;isLoopSub=1;fillColor=#d5e8d4;strokeColor=#82b366;" vertex="1" parent="1">
          <mxGeometry x="280" y="380" width="120" height="60" as="geometry" />
        </mxCell>
        <mxCell id="S86RLXgE3m7_56bNUZm7-14" style="edgeStyle=orthogonalEdgeStyle;rounded=0;orthogonalLoop=1;jettySize=auto;html=1;entryX=0.5;entryY=0;entryDx=0;entryDy=0;" edge="1" parent="1" source="S86RLXgE3m7_56bNUZm7-9" target="S86RLXgE3m7_56bNUZm7-4">
          <mxGeometry relative="1" as="geometry" />
        </mxCell>
        <mxCell id="S86RLXgE3m7_56bNUZm7-25" value="Yes" style="edgeLabel;html=1;align=center;verticalAlign=middle;resizable=0;points=[];" vertex="1" connectable="0" parent="S86RLXgE3m7_56bNUZm7-14">
          <mxGeometry x="0.312" y="2" relative="1" as="geometry">
            <mxPoint as="offset" />
          </mxGeometry>
        </mxCell>
        <mxCell id="S86RLXgE3m7_56bNUZm7-19" style="edgeStyle=orthogonalEdgeStyle;rounded=0;orthogonalLoop=1;jettySize=auto;html=1;" edge="1" parent="1" source="S86RLXgE3m7_56bNUZm7-9" target="S86RLXgE3m7_56bNUZm7-15">
          <mxGeometry relative="1" as="geometry" />
        </mxCell>
        <mxCell id="S86RLXgE3m7_56bNUZm7-26" value="No" style="edgeLabel;html=1;align=center;verticalAlign=middle;resizable=0;points=[];" vertex="1" connectable="0" parent="S86RLXgE3m7_56bNUZm7-19">
          <mxGeometry x="-0.2185" y="-1" relative="1" as="geometry">
            <mxPoint as="offset" />
          </mxGeometry>
        </mxCell>
        <mxCell id="S86RLXgE3m7_56bNUZm7-9" value="" style="rhombus;" vertex="1" parent="1">
          <mxGeometry x="305" y="110" width="70" height="60" as="geometry" />
        </mxCell>
        <mxCell id="S86RLXgE3m7_56bNUZm7-10" value="`t&amp;lt;=T`" style="text;strokeColor=none;fillColor=none;html=1;fontSize=14;fontStyle=1;verticalAlign=middle;align=center;spacing=0;" vertex="1" parent="1">
          <mxGeometry x="325" y="135" width="30" height="10" as="geometry" />
        </mxCell>
        <mxCell id="S86RLXgE3m7_56bNUZm7-11" value="Set initial state for `t=0`" style="rounded=1;whiteSpace=wrap;html=1;fillColor=#ffe6cc;strokeColor=#d79b00;" vertex="1" parent="1">
          <mxGeometry x="280" y="15" width="120" height="60" as="geometry" />
        </mxCell>
        <mxCell id="S86RLXgE3m7_56bNUZm7-22" style="edgeStyle=orthogonalEdgeStyle;rounded=0;orthogonalLoop=1;jettySize=auto;html=1;" edge="1" parent="1" source="S86RLXgE3m7_56bNUZm7-15" target="S86RLXgE3m7_56bNUZm7-20">
          <mxGeometry relative="1" as="geometry" />
        </mxCell>
        <mxCell id="S86RLXgE3m7_56bNUZm7-15" value="Compare results: scenario simulation vs. NPC simulation" style="rounded=1;whiteSpace=wrap;html=1;fillColor=#ffe6cc;strokeColor=#d79b00;" vertex="1" parent="1">
          <mxGeometry x="440" y="110" width="120" height="60" as="geometry" />
        </mxCell>
        <mxCell id="S86RLXgE3m7_56bNUZm7-18" style="edgeStyle=orthogonalEdgeStyle;rounded=0;orthogonalLoop=1;jettySize=auto;html=1;entryX=0;entryY=0.5;entryDx=0;entryDy=0;" edge="1" parent="1" source="S86RLXgE3m7_56bNUZm7-16" target="S86RLXgE3m7_56bNUZm7-9">
          <mxGeometry relative="1" as="geometry">
            <Array as="points">
              <mxPoint x="180" y="500" />
              <mxPoint x="180" y="140" />
            </Array>
          </mxGeometry>
        </mxCell>
        <mxCell id="S86RLXgE3m7_56bNUZm7-27" value="`t=&amp;gt;t+1`" style="edgeLabel;html=1;align=center;verticalAlign=middle;resizable=0;points=[];" vertex="1" connectable="0" parent="S86RLXgE3m7_56bNUZm7-18">
          <mxGeometry x="-0.745" y="-1" relative="1" as="geometry">
            <mxPoint x="-15" y="-129" as="offset" />
          </mxGeometry>
        </mxCell>
        <mxCell id="S86RLXgE3m7_56bNUZm7-16" value="Calculate additional variables" style="rounded=1;whiteSpace=wrap;html=1;fillColor=#d5e8d4;strokeColor=#82b366;" vertex="1" parent="1">
          <mxGeometry x="280" y="470" width="120" height="60" as="geometry" />
        </mxCell>
        <mxCell id="S86RLXgE3m7_56bNUZm7-20" value="" style="ellipse;html=1;shape=endState;fillColor=#000000;strokeColor=#ff0000;" vertex="1" parent="1">
          <mxGeometry x="485" y="215" width="30" height="30" as="geometry" />
        </mxCell>
      </root>
    </mxGraphModel>
  </diagram>
</mxfile>
